<svg width="64" height="64" viewBox="0 0 64 64" xmlns="http://www.w3.org/2000/svg">
  <!-- Sun -->
  <circle cx="24" cy="24" r="12" fill="#FFA500" opacity="0.9"/>
  <!-- Sun rays -->
  <g stroke="#FFA500" stroke-width="2" stroke-linecap="round" opacity="0.7">
    <line x1="24" y1="6" x2="24" y2="10"/>
    <line x1="24" y1="38" x2="24" y2="42"/>
    <line x1="6" y1="24" x2="10" y2="24"/>
    <line x1="38" y1="24" x2="42" y2="24"/>
    <line x1="12.5" y1="12.5" x2="15.1" y2="15.1"/>
    <line x1="32.9" y1="32.9" x2="35.5" y2="35.5"/>
    <line x1="12.5" y1="35.5" x2="15.1" y2="32.9"/>
    <line x1="32.9" y1="15.1" x2="35.5" y2="12.5"/>
  </g>
  <!-- Cloud -->
  <path d="M20 40 C14 40, 10 36, 10 32 C10 28, 14 24, 18 24 C20 20, 24 18, 28 18 C34 18, 38 22, 38 28 C42 28, 46 32, 46 36 C46 40, 42 44, 38 44 L20 44 Z" 
        fill="#E6F3FF" stroke="#4A90E2" stroke-width="1" opacity="0.95"/>
  <!-- Small rain drops -->
  <g fill="#4A90E2" opacity="0.6">
    <ellipse cx="22" cy="48" rx="1.5" ry="3"/>
    <ellipse cx="28" cy="50" rx="1.5" ry="3"/>
    <ellipse cx="34" cy="48" rx="1.5" ry="3"/>
  </g>
</svg> 